<?xml version="1.0" encoding="utf-8"?>
<!-- Generator: Adobe Illustrator 22.0.0, SVG Export Plug-In . SVG Version: 6.00 Build 0)  -->
<svg version="1.1" id="图层_1" xmlns="http://www.w3.org/2000/svg" xmlns:xlink="http://www.w3.org/1999/xlink" x="0px" y="0px"
	 viewBox="0 0 27.2 9.3" style="enable-background:new 0 0 27.2 9.3;" xml:space="preserve">
<style type="text/css">
	.st0{fill:#FFFFFF;}
</style>
<g>
	<g>
		<path class="st0" d="M1.1,4.6c0,1.5,1.2,2.8,2.8,2.8c1.5,0,2.8-1.2,2.8-2.8c0-1.5-1.2-2.8-2.8-2.8C2.3,1.9,1.1,3.1,1.1,4.6
			L1.1,4.6z M1.1,4.6"/>
	</g>
	<path class="st0" d="M11,4.6c0,1.5,1.2,2.8,2.8,2.8c1.5,0,2.8-1.2,2.8-2.8c0-1.5-1.2-2.8-2.8-2.8C12.2,1.9,11,3.1,11,4.6L11,4.6z
		 M11,4.6"/>
	<path class="st0" d="M20.6,4.6c0,1.5,1.2,2.8,2.8,2.8c1.5,0,2.8-1.2,2.8-2.8c0-1.5-1.2-2.8-2.8-2.8C21.8,1.9,20.6,3.1,20.6,4.6
		L20.6,4.6z M20.6,4.6"/>
</g>
</svg>
