<?xml version="1.0" encoding="utf-8"?>
<!-- Generator: Adobe Illustrator 22.1.0, SVG Export Plug-In . SVG Version: 6.00 Build 0)  -->
<svg version="1.1" id="图层_1" xmlns="http://www.w3.org/2000/svg" xmlns:xlink="http://www.w3.org/1999/xlink" x="0px" y="0px"
	 viewBox="0 0 39 36" style="enable-background:new 0 0 39 36;" xml:space="preserve">
<style type="text/css">
	.st0{fill:#7966FE;}
</style>
<g>
	<path class="st0" d="M30.5,8.2C28.2,5.9,24.3,5.1,19.7,5C15,5.1,11.2,5.9,8.9,8.2C6.5,10.5,5.7,14.4,5.7,19
		c0.1,4.6,0.9,8.5,3.2,10.8c2.3,2.4,6.1,3.2,10.8,3.2c4.6-0.1,8.5-0.9,10.8-3.2c2.4-2.3,3.2-6.1,3.2-10.8
		C33.6,14.4,32.8,10.5,30.5,8.2z M24.8,20.3l-7.6,4.2c-1,0.5-2.2-0.2-2.2-1.3v-8.5c0-1.1,1.2-1.8,2.2-1.3l7.6,4.2
		C25.8,18.3,25.8,19.7,24.8,20.3z"/>
</g>
</svg>
